<svg xmlns="http://www.w3.org/2000/svg" version="1.1" xmlns:xlink="http://www.w3.org/1999/xlink" xmlns:svgjs="http://svgjs.dev/svgjs" width="1000" height="1170" viewBox="0 0 1000 1170"><g transform="matrix(1,0,0,1,-0.9997309052358219,0.4745589251671163)"><svg viewBox="0 0 211 247" data-background-color="#ffffff" preserveAspectRatio="xMidYMid meet" height="1170" width="1000" xmlns="http://www.w3.org/2000/svg" xmlns:xlink="http://www.w3.org/1999/xlink"><g id="tight-bounds" transform="matrix(1,0,0,1,0.21095486794291674,-0.099973655792013)"><svg viewBox="0 0 210.57810191105236 247.2" height="247.2" width="210.57810191105236"><g><svg viewBox="0 0 210.57810191105239 247.20000000000002" height="247.2" width="210.57810191105236"><g><svg viewBox="0 0 210.57810191105239 247.20000000000002" height="247.20000000000002" width="210.57810191105239"><g id="textblocktransform"><svg viewBox="0 0 210.57810191105239 247.20000000000002" height="247.20000000000002" width="210.57810191105239" id="textblock"><g><svg viewBox="0 0 210.57810191105239 247.20000000000002" height="247.20000000000002" width="210.57810191105239"><path d="M210.085 53.02C209.095 27.36 206.274 20.227 206.274 20.227 197.611-6.202 186.801-0.506 177.089 3.292 159.943 3.446 142.866 9.091 125.759 12.119 89.853 12.581 53.64 4.986 17.912 23.717 14.556 29.464-3.482 24.846 0.597 56.304 1.666 69.39 5.567 83.913 5.448 95.922 5.982 98.026 6.725 93.202 7.042 96.23 8.15 104.39 9.962 100.541 11.447 105.365 9.378 118.246 10.863 128.971 12.279 140.21 9.784 143.135 6.586 141.749 5.151 151.449 5.002 158.479 4.2 157.145 3.319 156.837 2.676 156.632 1.379 157.402 1.597 159.608 2.339 167.152-0.848 171.514 1.151 178.904-0.225 186.91 2.102 193.838 1.785 202.511 1.745 204.255 1.963 205.744 2.31 206.154 3.844 208.361 1.607 212.672 1.844 217.342 17.585 249.262 34.662 227.195 50.789 241.872 54.976 231.608 51.828 245.516 53.501 243.36 54.808 240.846 55.758 251.263 57.233 245.362 57.461 243.668 57.115 239.665 57.926 240.435 58.352 240.846 58.728 240.743 58.788 238.382 58.877 234.841 58.095 237.048 57.887 235.201 60.134 225.861 59.58 248.081 61.688 247.158 61.589 244.438 60.975 240.538 62.233 241.051 63.48 237.151 63.52 233.918 64.628 242.693 64.668 244.592 64.866 245.926 65.183 246.85 68.648 237.305 72.093 250.237 75.726 245.926 77.953 241.205 80.092 248.492 82.349 246.696 83.141 245.259 83.943 242.693 84.705 247.004 94.04 247.928 103.99 244.079 112.84 247.158 136.491 241.41 161.765 249.518 186.702 241.923 192.582 238.998 198.691 234.841 204.422 231.506 204.422 231.506 209.065 222.371 209.065 181.316S210.055 145.393 210.204 112.703C210.352 80.013 211.045 78.679 210.055 53.02Z" opacity="1" fill="#ed3b43" data-fill-palette-color="tertiary"></path><g transform="matrix(1,0,0,1,55.768319999999996,26.230666666666668)"><svg width="99.0414619110524" viewBox="0.9000000357627869 -37.29999923706055 19.25 37.849998474121094" height="194.7386666666667" data-palette-color="#ffffff"><path d="M20.15-31.4L20.15-31.4 20.15-9.85Q20.15-4.75 17.23-2.1 14.3 0.55 10 0.55 5.7 0.55 3.3-1.07 0.9-2.7 0.9-4.83 0.9-6.95 2.15-8.1L2.15-8.1Q4.9-5.7 8.1-5.7L8.1-5.7Q9.95-5.7 11.13-6.68 12.3-7.65 12.3-9.5L12.3-9.5 12.3-31.7Q12.3-34.25 10.6-35.15L10.6-35.15Q12.5-37.3 15.2-37.3L15.2-37.3Q20.15-37.3 20.15-31.4Z" opacity="1" transform="matrix(1,0,0,1,0,0)" fill="#ffffff" class="undefined-text-0" data-fill-palette-color="quaternary" id="text-0"></path></svg></g></svg></g></svg></g></svg></g><g></g></svg></g><defs></defs></svg><rect width="210.57810191105236" height="247.2" fill="none" stroke="none" visibility="hidden"></rect></g></svg></g></svg>